<svg width="226" height="56" viewBox="0 0 226 56" fill="none" xmlns="http://www.w3.org/2000/svg">
<path d="M27.1966 42.4297C24.0336 42.4297 21.1136 43.6277 18.9736 45.7997C16.8246 47.9867 15.6416 50.9737 15.6416 54.2137C15.6416 54.2727 15.6446 54.3337 15.6446 54.3937H17.2716C17.2706 54.3337 17.2666 54.2727 17.2666 54.2137C17.2666 48.4777 21.5366 44.1517 27.1966 44.1517C32.8596 44.1517 37.1296 48.4777 37.1296 54.2137C37.1296 54.2727 37.1246 54.3337 37.1246 54.3937H38.7506C38.7506 54.3337 38.7536 54.2727 38.7536 54.2137C38.7536 50.9737 37.5706 47.9867 35.4206 45.7997C33.2806 43.6277 30.3606 42.4297 27.1966 42.4297Z" fill="white"/>
<path d="M27.1962 47.3561C25.3562 47.3561 23.6562 48.0531 22.4112 49.3191C21.1592 50.5901 20.4712 52.3311 20.4712 54.2161C20.4712 54.2761 20.4782 54.3351 20.4802 54.3971H22.2852C22.2822 54.3051 22.2722 54.2131 22.2722 54.1171C22.2722 51.3391 24.3902 49.2401 27.1962 49.2401C30.0062 49.2401 32.1222 51.3391 32.1222 54.1171C32.1222 54.2131 32.1132 54.3051 32.1092 54.3971H33.9152C33.9162 54.3351 33.9232 54.2761 33.9232 54.2161C33.9232 52.3311 33.2342 50.5901 31.9832 49.3191C30.7372 48.0531 29.0382 47.3561 27.1962 47.3561Z" fill="white"/>
<path d="M54.2046 12.7421C52.9296 0.705128 45.9826 2.00413 43.9646 3.37713C41.7526 4.88213 36.0186 11.4071 36.0186 11.4071C34.8726 12.6341 34.4326 12.3941 34.4326 12.3941C33.8956 12.4481 33.6546 11.3431 33.6546 11.3431C33.5026 10.7431 32.9156 8.40013 32.0386 5.90113C31.7156 4.85713 31.4136 4.00013 31.1076 3.26113C31.1076 3.26113 32.1666 3.19213 32.7396 3.13113C33.3146 3.07013 33.2306 3.23413 33.2996 3.49713C33.2996 3.49713 33.4456 3.96213 33.6246 3.96213C33.8246 3.96213 33.8496 3.78013 33.8496 3.78013C33.9676 3.27813 33.9696 1.18913 33.0106 1.05913C32.0506 0.931129 30.8916 1.05913 30.8916 1.05913C30.5236 0.685127 30.2746 0.371124 29.7766 0.208126C29.1656 -0.0728722 26.7176 -0.0438728 25.8796 0.144127C25.2096 0.295128 24.6646 0.767128 24.1846 1.63713C23.4936 2.89613 22.8736 4.42513 22.3556 5.90113C21.4786 8.40013 20.8916 10.7431 20.7406 11.3431C20.7406 11.3431 20.4996 12.4481 19.9616 12.3941C19.9616 12.3941 19.5226 12.6341 18.3756 11.4071C18.3756 11.4071 12.6416 4.88213 10.4306 3.37713C8.41158 2.00413 1.46558 0.705128 0.189583 12.7421C-1.04142 24.3491 3.98758 37.6231 7.61658 54.3971C7.61658 54.3971 11.8756 51.6501 12.6896 46.2481L13.0666 46.8411C13.3766 47.3021 14.3386 47.4171 15.0196 46.4641L16.6986 44.1181C17.3816 43.1651 16.8136 42.3511 16.7066 42.1851L16.3456 41.6031C16.2856 41.5051 16.3116 41.3651 16.4036 41.3001L18.9526 39.4161C19.0466 39.3491 19.1836 39.3661 19.2556 39.4571L19.6886 39.9831C19.8116 40.1371 20.3966 40.9361 21.5006 40.5721L24.2166 39.6771C25.3196 39.3131 25.3316 38.3171 25.3416 38.1191L25.3866 37.4341C25.3946 37.3151 25.4946 37.2211 25.6086 37.2201H27.1956H27.1986H28.7866C28.9006 37.2211 29.0006 37.3151 29.0076 37.4341L29.0536 38.1191C29.0626 38.3171 29.0746 39.3131 30.1786 39.6771L32.8946 40.5721C33.9976 40.9361 34.5826 40.1371 34.7066 39.9831L35.1386 39.4571C35.2116 39.3661 35.3486 39.3491 35.4406 39.4161L37.9916 41.3001C38.0836 41.3651 38.1086 41.5051 38.0486 41.6031L37.6876 42.1851C37.5816 42.3511 37.0136 43.1651 37.6956 44.1181L39.3756 46.4641C40.0566 47.4171 41.0166 47.3021 41.3286 46.8411L41.7056 46.2481C42.5186 51.6501 46.7786 54.3971 46.7786 54.3971C50.4066 37.6231 55.4366 24.3491 54.2046 12.7421ZM17.9736 13.1411C18.9026 14.0621 19.5026 14.0171 19.7496 14.0051C19.9186 13.9911 20.1336 13.9561 20.2896 13.8131C20.0666 15.0231 19.8956 16.9221 19.8956 16.9311C19.8956 17.0221 19.7396 17.4941 19.4046 17.7621C19.0876 18.0161 18.4226 18.7651 16.9216 18.2531C15.0826 17.6261 14.6266 16.4541 14.6566 15.5941C14.6726 15.1461 14.8336 14.4581 14.9146 14.1141C15.1556 13.0951 15.5406 11.7601 15.9946 11.0351C16.1746 11.2341 17.9736 13.1411 17.9736 13.1411ZM11.6916 6.47813C13.0186 7.71012 13.9406 8.68013 14.9516 9.84513C14.6836 10.3491 13.9446 12.0471 13.6616 13.3581C13.5516 13.8711 13.2926 15.2461 12.3296 15.5571C11.8536 15.7131 11.1406 15.6431 10.5516 15.2871C9.20358 14.4651 8.72458 13.3521 8.72458 12.5341C8.72458 11.9291 9.02558 11.0251 9.03858 10.9821C9.65358 8.77413 11.1556 6.89513 11.6916 6.47813ZM5.92558 4.22113C7.47258 3.59113 8.97358 4.10113 9.73358 4.70113C10.0096 4.91813 10.4676 5.22213 10.6616 5.48112C9.82358 6.14312 8.47658 7.50713 7.51058 10.7101C7.42658 11.0211 7.16958 11.8151 6.11858 11.3751C6.11858 11.3751 4.30058 10.7131 2.88958 11.7231C2.28758 12.1521 1.96058 12.5771 1.61358 13.1701C1.81158 8.32313 4.03158 4.99512 5.92558 4.22113ZM8.53858 51.6271C7.18058 45.2641 5.11358 37.1571 5.09158 37.0891C2.50158 27.3051 2.00358 22.8081 1.99958 22.7751C1.99458 22.7351 1.64358 20.5441 1.61258 18.7311C1.56058 15.7351 2.09358 13.5361 4.37958 12.8781C4.75558 12.8001 5.58658 12.5771 6.63858 13.4221C6.63858 13.4221 6.46558 14.4001 6.41858 14.9961C6.34858 15.8311 6.27758 16.4441 6.29058 17.2351C6.47058 26.8271 8.60258 33.5931 9.99558 38.9791C10.5826 41.2501 11.0956 42.9751 11.1926 44.1181C11.5106 47.8771 9.22058 50.8671 8.53858 51.6271ZM15.1266 40.6131C14.6136 40.9911 14.7126 41.7991 14.8996 42.1011L15.5946 43.2111L13.8296 45.6791C11.4866 38.9131 7.95758 27.0461 7.91858 18.2091C7.91658 17.7701 7.92558 17.3361 7.94458 16.9101C7.99158 15.8551 8.01458 15.3481 8.10758 14.7151C8.33758 15.9001 9.95358 17.8741 12.9096 17.1561C12.8976 17.4311 12.8886 17.6781 12.8886 18.0031C12.8886 19.0251 12.9116 21.1341 13.0266 22.3171C13.7606 29.8441 15.1646 35.7961 16.4976 39.5991L15.1266 40.6131ZM20.1706 38.2131C19.9466 37.9381 19.2176 37.5921 18.7046 37.9721L17.8686 38.5901C15.0506 29.8681 14.3596 21.9951 14.3966 17.9361C14.6826 19.3511 17.7596 20.9391 19.8006 19.1201C19.6776 20.6951 19.4936 28.4151 20.9936 39.2261C20.7826 38.9671 20.1706 38.2131 20.1706 38.2131ZM21.4706 28.1421C21.3136 25.9571 20.9936 16.2351 22.1716 12.4411C22.5056 13.6661 24.5206 14.7121 26.3216 13.5471V28.1151C26.0016 27.1991 22.9916 26.2951 21.4706 28.1421ZM26.3826 35.8821L24.9736 35.9031C24.3386 35.9031 23.9506 36.6161 23.9276 36.9711C23.9276 36.9731 23.8696 37.9491 23.8486 38.2861L22.3276 38.7861C21.5896 33.0111 21.6916 31.2981 21.6916 31.2981C21.6916 29.3931 22.8236 28.8111 23.9856 28.8211C24.8396 28.8291 26.3826 29.1321 26.3826 31.6811V35.8821ZM27.2076 10.7621H27.1876C27.1036 10.7621 27.0326 10.8191 27.0136 10.9001C27.0026 10.9541 26.5536 12.1551 25.1546 12.4321C24.5056 12.5601 23.9676 12.4411 23.5536 12.0761C22.9636 11.5541 22.7916 10.7301 22.8226 10.1431C22.8326 9.93813 22.8626 9.60813 22.9496 9.20613C23.1336 8.36913 23.4506 7.13813 23.8476 5.90113C24.5046 3.85713 25.3796 1.79413 26.2426 1.47713C26.4066 1.41713 26.5936 1.41513 26.9546 1.39513C28.2886 1.31913 29.7586 1.38613 29.8866 1.68013C29.9986 1.94813 30.0736 2.31213 30.0016 2.41813C29.9986 2.42712 29.9836 2.44313 29.9256 2.44313C29.7786 2.44113 28.4826 2.42913 28.1766 2.79213C28.1106 2.86913 28.0836 2.96213 28.1006 3.05413C28.1356 3.27913 28.3636 3.35112 28.6236 3.43113C29.0216 3.55212 29.6216 3.73713 30.0166 4.48813C30.1986 4.83313 30.3396 5.33613 30.5486 5.90113H30.5466C30.9436 7.13813 31.2616 8.36913 31.4436 9.20613C31.5316 9.60813 31.5626 9.93813 31.5716 10.1431C31.6036 10.7301 31.4306 11.5541 30.8406 12.0761C30.4276 12.4411 29.8886 12.5601 29.2406 12.4321C27.8406 12.1551 27.3916 10.9541 27.3806 10.9001C27.3616 10.8191 27.2906 10.7621 27.2076 10.7621ZM32.0676 38.7861L30.5466 38.2861C30.5256 37.9491 30.4666 36.9731 30.4666 36.9711C30.4446 36.6161 30.0566 35.9031 29.4216 35.9031L28.0126 35.8821V31.6811C28.0126 29.1321 29.5556 28.8291 30.4096 28.8211C31.5716 28.8111 32.7036 29.3931 32.7036 31.2981C32.7036 31.2981 32.8056 33.0111 32.0676 38.7861ZM32.9236 28.1421C31.4016 26.2951 28.3926 27.1991 28.0716 28.1151V13.5471C29.8746 14.7121 31.8896 13.6661 32.2236 12.4411C33.4006 16.2351 33.0806 25.9571 32.9236 28.1421ZM44.6616 4.70113C45.4206 4.10113 46.9216 3.59113 48.4696 4.22113C50.3626 4.99512 52.5826 8.32313 52.7806 13.1701C52.4336 12.5771 52.1066 12.1521 51.5056 11.7231C50.0946 10.7131 48.2756 11.3751 48.2756 11.3751C47.2256 11.8151 46.9686 11.0211 46.8846 10.7101C45.9186 7.50713 44.5706 6.14312 43.7336 5.48112C43.9276 5.22213 44.3846 4.91813 44.6616 4.70113ZM42.7026 6.47813C43.2396 6.89513 44.7406 8.77413 45.3556 10.9821C45.3696 11.0251 45.6706 11.9291 45.6706 12.5341C45.6706 13.3521 45.1916 14.4651 43.8436 15.2871C43.2536 15.6431 42.5406 15.7131 42.0646 15.5571C41.1026 15.2461 40.8436 13.8711 40.7326 13.3581C40.4506 12.0471 39.7116 10.3491 39.4436 9.84513C40.4536 8.68013 41.3756 7.71012 42.7026 6.47813ZM34.6456 14.0051C34.8926 14.0171 35.4926 14.0621 36.4216 13.1411C36.4216 13.1411 38.2186 11.2341 38.4006 11.0351C38.8546 11.7601 39.2396 13.0951 39.4806 14.1141C39.5606 14.4581 39.7226 15.1461 39.7376 15.5941C39.7686 16.4541 39.3126 17.6261 37.4726 18.2531C35.9716 18.7651 35.3076 18.0161 34.9906 17.7621C34.6556 17.4941 34.4996 17.0221 34.4996 16.9311C34.4996 16.9221 34.3286 15.0231 34.1046 13.8131C34.2616 13.9561 34.4766 13.9911 34.6456 14.0051ZM35.6896 37.9721C35.1756 37.5921 34.4486 37.9381 34.2246 38.2131C34.2246 38.2131 33.6116 38.9671 33.4016 39.2261C34.9016 28.4151 34.7176 20.6951 34.5946 19.1201C36.6356 20.9391 39.7116 19.3511 39.9986 17.9361C40.0346 21.9951 39.3436 29.8681 36.5266 38.5901L35.6896 37.9721ZM40.5646 45.6791L38.7996 43.2111L39.4946 42.1011C39.6826 41.7991 39.7806 40.9911 39.2676 40.6131L37.8966 39.5991C39.2306 35.7961 40.6336 29.8441 41.3686 22.3171C41.4836 21.1341 41.5066 19.0251 41.5066 18.0031C41.5066 17.6781 41.4966 17.4311 41.4856 17.1561C44.4416 17.8741 46.0566 15.9001 46.2876 14.7151C46.3806 15.3481 46.4026 15.8551 46.4506 16.9101C46.4686 17.3361 46.4786 17.7701 46.4756 18.2091C46.4376 27.0461 42.9086 38.9131 40.5646 45.6791ZM52.3956 22.7751C52.3906 22.8081 51.8936 27.3051 49.3036 37.0891C49.2806 37.1571 47.2146 45.2641 45.8556 51.6271C45.1746 50.8671 42.8826 47.8771 43.2026 44.1181C43.2986 42.9751 43.8116 41.2501 44.3996 38.9791C45.7916 33.5931 47.9236 26.8271 48.1036 17.2351C48.1176 16.4441 48.0466 15.8311 47.9766 14.9961C47.9286 14.4001 47.7566 13.4221 47.7566 13.4221C48.8076 12.5771 49.6386 12.8001 50.0156 12.8781C52.3016 13.5361 52.8346 15.7351 52.7816 18.7311C52.7516 20.5441 52.3996 22.7351 52.3956 22.7751Z" fill="white"/>
<path d="M74.9015 40.1773C73.5205 39.1463 71.9955 38.6523 70.2645 38.6523C65.8145 38.6523 62.1665 42.3003 62.1665 46.7503C62.1665 51.1603 65.8765 54.7243 70.2645 54.7243C71.9135 54.7243 73.5625 54.1683 74.9015 53.2003V51.0563C73.6655 52.2933 71.9545 53.1173 70.2035 53.1173C66.7205 53.1173 63.8985 50.1083 63.8985 46.6883C63.8985 43.2673 66.6995 40.2593 70.1615 40.2593C71.9545 40.2593 73.6655 41.0413 74.9015 42.3193V40.1773Z" fill="white"/>
<path d="M84.6942 40.2717C88.2592 40.2717 91.0612 43.1997 91.0612 46.7517C91.0612 50.2817 88.2182 53.2307 84.6942 53.2307C81.1702 53.2307 78.3262 50.2817 78.3262 46.7517C78.3262 43.1997 81.1292 40.2717 84.6942 40.2717ZM84.6942 38.6517C80.2642 38.6517 76.5952 42.2867 76.5952 46.7717C76.5952 51.2787 80.2642 54.8507 84.6942 54.8507C89.1252 54.8507 92.7922 51.2787 92.7922 46.7717C92.7922 42.2867 89.1252 38.6517 84.6942 38.6517Z" fill="white"/>
<path d="M94.4878 54.4564H96.2198V42.4844L108.336 55.1574V38.9194H106.605V50.9534L94.4878 38.2594V54.4564Z" fill="white"/>
<path d="M118.925 40.5267V38.9187H111.857V54.4567H113.588V46.7507H118.761V45.1427H113.588V40.5267H118.925Z" fill="white"/>
<path d="M124.179 38.9197H122.448V54.4567H124.179V38.9197Z" fill="white"/>
<path d="M127.701 54.4564H129.432V42.4844L141.549 55.1574V38.9194H139.818V50.9534L127.701 38.2594V54.4564Z" fill="white"/>
<path d="M146.147 52.8492V40.5272H147.404C149.238 40.5272 150.804 40.7742 152.226 42.0312C153.566 43.2062 154.246 44.9162 154.246 46.6892C154.246 48.4192 153.586 50.0472 152.309 51.2422C150.887 52.5812 149.3 52.8492 147.404 52.8492H146.147ZM144.417 54.4572H147.302C149.733 54.4572 151.587 54.1482 153.442 52.4992C155.152 50.9742 155.977 48.9762 155.977 46.7082C155.977 44.4012 155.173 42.3192 153.4 40.7952C151.567 39.2292 149.671 38.9202 147.343 38.9202H144.417V54.4572Z" fill="white"/>
<path d="M159.798 38.9193H158.067V48.6463C158.067 50.4183 158.232 51.8403 159.592 53.1383C160.642 54.1683 162.147 54.7243 163.61 54.7243C165.177 54.7243 166.721 54.1063 167.793 52.9533C169.03 51.6743 169.153 50.3363 169.153 48.6463V38.9193H167.423V48.1713C167.423 49.3883 167.484 50.7473 166.66 51.7363C165.939 52.6023 164.723 53.1173 163.61 53.1173C162.476 53.1173 161.158 52.5823 160.478 51.6333C159.756 50.6443 159.798 49.3263 159.798 48.1713V38.9193Z" fill="white"/>
<path d="M180.672 41.0628C179.848 39.5378 178.385 38.6508 176.654 38.6508C174.346 38.6508 172.306 40.1958 172.306 42.6078C172.306 44.8338 173.872 45.7618 175.685 46.5848L176.633 46.9968C178.076 47.6558 179.498 48.2748 179.498 50.0878C179.498 51.8398 177.973 53.1168 176.304 53.1168C174.635 53.1168 173.419 51.8198 173.192 50.2328L171.503 50.7058C171.997 53.1168 173.851 54.7238 176.345 54.7238C179.044 54.7238 181.229 52.6438 181.229 49.9218C181.229 47.4498 179.518 46.4408 177.499 45.5548L176.469 45.1008C175.417 44.6278 174.037 44.0088 174.037 42.6698C174.037 41.2488 175.232 40.2598 176.612 40.2598C177.931 40.2598 178.672 40.8768 179.291 41.9488L180.672 41.0628Z" fill="white"/>
<path d="M188.01 40.5267H191.801V38.9187H182.528V40.5267H186.278V54.4567H188.01V40.5267Z" fill="white"/>
<path d="M196.4 47.6357H196.833L201.53 54.4567H203.653L198.708 47.4917C201.098 47.2847 202.602 45.5967 202.602 43.2057C202.602 39.7017 199.862 38.9187 196.915 38.9187H194.669V54.4567H196.4V47.6357ZM196.4 40.5267H196.915C198.996 40.5267 200.871 40.7737 200.871 43.3287C200.871 45.7407 198.893 46.1107 196.935 46.1107H196.4V40.5267Z" fill="white"/>
<path d="M208.647 38.9197H206.915V54.4567H208.647V38.9197Z" fill="white"/>
<path d="M220.981 48.4397H215.727L218.386 42.2167L220.981 48.4397ZM221.662 50.0477L223.496 54.4567H225.412L218.427 38.1777L211.256 54.4567H213.151L215.027 50.0477H221.662Z" fill="white"/>
</svg>
