<svg width="27" height="30" viewBox="0 0 27 30" fill="none" xmlns="http://www.w3.org/2000/svg">
<g clip-path="url(#clip0_2005_103)">
<path d="M-0.0424805 29.0579V23.7319C-0.0424805 19.6329 2.52252 14.6829 7.12352 14.6829H7.47852C5.50052 13.1309 4.34452 10.7609 4.34452 8.2399C4.34452 3.7229 8.01852 0.0488987 12.5365 0.0488987C17.0555 0.0488987 20.7275 3.7209 20.7275 8.2399C20.7275 10.7639 19.5725 13.1299 17.5945 14.6829H18.9155C23.5155 14.6829 26.0815 19.6329 26.0815 23.7319V29.0579H24.3315V23.7319C24.3315 20.6379 22.4905 16.4329 18.9155 16.4329H7.12352C3.54652 16.4329 1.70652 20.6379 1.70652 23.7319V29.0579H-0.0424805ZM12.5365 1.7989C8.97352 1.7989 6.09352 4.6799 6.09352 8.2419C6.09352 11.8359 9.00552 14.7039 12.5955 14.6749C16.1345 14.6449 18.9795 11.7849 18.9795 8.2419C18.9795 4.6819 16.0975 1.7989 12.5365 1.7989Z" fill="white"/>
</g>
<defs>
<clipPath id="clip0_2005_103">
<rect width="26.1001" height="29.1" fill="white"/>
</clipPath>
</defs>
</svg>
