<svg width="30" height="30" viewBox="0 0 30 30" fill="none" xmlns="http://www.w3.org/2000/svg">
<g clip-path="url(#clip0_2005_101)">
<path d="M28.5127 26.2249L19.7607 17.4719C21.1067 15.7039 21.8647 13.4319 21.8647 10.9899C21.8647 4.9309 16.9837 0.0499001 10.9237 0.0499001C4.86369 0.0499001 -0.0183105 4.9319 -0.0183105 10.9919C-0.0183105 17.0519 4.86269 21.9329 10.9217 21.9329C13.3637 21.9329 15.5507 21.1749 17.4037 19.8289L26.1567 28.5829C26.4927 28.9189 26.9137 29.0879 27.3357 29.0879C27.7567 29.0879 28.1767 28.9189 28.5147 28.5829C29.1867 27.9089 29.1867 26.8989 28.5127 26.2249ZM10.9237 18.5669C6.71469 18.5669 3.34869 15.2009 3.34869 10.9919C3.34869 6.7829 6.71469 3.4169 10.9237 3.4169C15.1327 3.4169 18.4987 6.7829 18.4987 10.9919C18.4987 15.1989 15.1307 18.5669 10.9237 18.5669Z" fill="white"/>
</g>
<defs>
<clipPath id="clip0_2005_101">
<rect width="29.2001" height="29.1" fill="white"/>
</clipPath>
</defs>
</svg>
